<svg xmlns="http://www.w3.org/2000/svg" width="250" height="250" viewBox="0 0 250 250">
  <!-- fundo azul esverdeado -->
  <rect width="250" height="250" rx="125" fill="#E0F7FA"/>
  <!-- cabelo -->
  <ellipse cx="125" cy="82" rx="62" ry="50" fill="#1A237E"/>
  <!-- pescoço -->
  <rect x="112" y="155" width="26" height="28" rx="8" fill="#FDDBB4"/>
  <!-- cabeça -->
  <ellipse cx="125" cy="100" rx="54" ry="54" fill="#FDDBB4"/>
  <!-- cabelo frente com topete -->
  <path d="M71 90 Q78 50 125 45 Q172 50 179 90 Q170 60 125 57 Q80 60 71 90Z" fill="#1A237E"/>
  <!-- topete levantado -->
  <path d="M105 55 Q115 30 130 48 Q125 38 118 52Z" fill="#1A237E"/>
  <!-- orelhas -->
  <ellipse cx="71" cy="103" rx="7" ry="12" fill="#FDDBB4"/>
  <ellipse cx="179" cy="103" rx="7" ry="12" fill="#FDDBB4"/>
  <!-- olhos -->
  <ellipse cx="108" cy="100" rx="7" ry="5.5" fill="#1B2631"/>
  <ellipse cx="142" cy="100" rx="7" ry="5.5" fill="#1B2631"/>
  <circle cx="110" cy="98" r="2.5" fill="white"/>
  <circle cx="144" cy="98" r="2.5" fill="white"/>
  <!-- sobrancelhas -->
  <path d="M99 87 Q108 82 117 87" fill="none" stroke="#1A237E" stroke-width="3" stroke-linecap="round"/>
  <path d="M133 87 Q142 82 151 87" fill="none" stroke="#1A237E" stroke-width="3" stroke-linecap="round"/>
  <!-- nariz -->
  <path d="M121 114 Q125 122 129 114" fill="none" stroke="#C2867A" stroke-width="2" stroke-linecap="round"/>
  <!-- espinha (detalhe adolescente) -->
  <circle cx="140" cy="107" r="2.5" fill="#E57373" opacity="0.6"/>
  <!-- boca -->
  <path d="M112 130 Q125 140 138 130" fill="none" stroke="#C2867A" stroke-width="2.5" stroke-linecap="round"/>
  <!-- corpo camiseta -->
  <path d="M65 250 Q65 185 125 180 Q185 185 185 250Z" fill="#00ACC1"/>
  <!-- estampa na camiseta -->
  <text x="125" y="226" font-family="sans-serif" font-size="18" font-weight="bold" text-anchor="middle" fill="white" opacity="0.8">★</text>
</svg>
