<svg xmlns="http://www.w3.org/2000/svg" width="250" height="250" viewBox="0 0 250 250">
  <!-- fundo rosa -->
  <rect width="250" height="250" rx="125" fill="#FADADD"/>
  <!-- cabeça -->
  <ellipse cx="125" cy="100" rx="60" ry="58" fill="#FDDBB4"/>
  <!-- touca -->
  <ellipse cx="125" cy="55" rx="60" ry="24" fill="#F48FB1"/>
  <rect x="65" y="55" width="120" height="20" fill="#F48FB1"/>
  <!-- pompom -->
  <circle cx="125" cy="33" r="13" fill="#FF80AB"/>
  <!-- olhos -->
  <circle cx="108" cy="105" r="6" fill="#4E342E"/>
  <circle cx="142" cy="105" r="6" fill="#4E342E"/>
  <circle cx="110" cy="103" r="2.5" fill="white"/>
  <circle cx="144" cy="103" r="2.5" fill="white"/>
  <!-- bochechas -->
  <circle cx="95" cy="118" r="10" fill="#F8BBD0" opacity="0.7"/>
  <circle cx="155" cy="118" r="10" fill="#F8BBD0" opacity="0.7"/>
  <!-- boca -->
  <path d="M112 128 Q125 140 138 128" fill="none" stroke="#C2867A" stroke-width="3" stroke-linecap="round"/>
  <!-- pescoço -->
  <rect x="112" y="155" width="26" height="28" rx="8" fill="#FDDBB4"/>
  <!-- corpo -->
  <ellipse cx="125" cy="215" rx="55" ry="40" fill="#F48FB1"/>
  <!-- bracinhos -->
  <ellipse cx="60" cy="200" rx="18" ry="10" fill="#F48FB1" transform="rotate(-20,60,200)"/>
  <ellipse cx="190" cy="200" rx="18" ry="10" fill="#F48FB1" transform="rotate(20,190,200)"/>
  <!-- mãos -->
  <circle cx="45" cy="192" r="10" fill="#FDDBB4"/>
  <circle cx="205" cy="192" r="10" fill="#FDDBB4"/>
</svg>
