<svg xmlns="http://www.w3.org/2000/svg" width="250" height="250" viewBox="0 0 250 250">
  <!-- fundo azul claro -->
  <rect width="250" height="250" rx="125" fill="#E3F2FD"/>
  <!-- cabelos brancos laterais -->
  <ellipse cx="125" cy="85" rx="62" ry="52" fill="#E0E0E0"/>
  <!-- careca -->
  <ellipse cx="125" cy="72" rx="42" ry="26" fill="#FFCCBC"/>
  <!-- pescoço -->
  <rect x="112" y="155" width="26" height="28" rx="8" fill="#FFCCBC"/>
  <!-- cabeça -->
  <ellipse cx="125" cy="100" rx="54" ry="54" fill="#FFCCBC"/>
  <!-- rugas testa -->
  <path d="M90 78 Q125 68 160 78" fill="none" stroke="#D4A090" stroke-width="1.5" opacity="0.6"/>
  <path d="M94 86 Q125 78 156 86" fill="none" stroke="#D4A090" stroke-width="1.2" opacity="0.5"/>
  <path d="M97 93 Q125 87 153 93" fill="none" stroke="#D4A090" stroke-width="1" opacity="0.4"/>
  <!-- orelhas -->
  <ellipse cx="71" cy="104" rx="7" ry="12" fill="#FFCCBC"/>
  <ellipse cx="179" cy="104" rx="7" ry="12" fill="#FFCCBC"/>
  <!-- olhos -->
  <ellipse cx="108" cy="103" rx="7" ry="5.5" fill="#37474F"/>
  <ellipse cx="142" cy="103" rx="7" ry="5.5" fill="#37474F"/>
  <circle cx="110" cy="101" r="2.5" fill="white"/>
  <circle cx="144" cy="101" r="2.5" fill="white"/>
  <!-- sobrancelhas grisalhas -->
  <path d="M98 89 Q108 84 118 89" fill="none" stroke="#9E9E9E" stroke-width="3.5" stroke-linecap="round"/>
  <path d="M132 89 Q142 84 152 89" fill="none" stroke="#9E9E9E" stroke-width="3.5" stroke-linecap="round"/>
  <!-- nariz maior -->
  <path d="M118 116 Q125 128 132 116" fill="none" stroke="#B08070" stroke-width="2.5" stroke-linecap="round"/>
  <!-- boca -->
  <path d="M110 136 Q125 143 140 136" fill="none" stroke="#B08070" stroke-width="2.5" stroke-linecap="round"/>
  <!-- bigode branco -->
  <path d="M108 140 Q125 148 142 140" fill="none" stroke="#E0E0E0" stroke-width="4" stroke-linecap="round"/>
  <!-- rugas laterais -->
  <path d="M106 136 Q100 145 106 156" fill="none" stroke="#D4A090" stroke-width="1.2" opacity="0.5"/>
  <path d="M144 136 Q150 145 144 156" fill="none" stroke="#D4A090" stroke-width="1.2" opacity="0.5"/>
  <!-- corpo camisa cinza -->
  <path d="M65 250 Q65 185 125 180 Q185 185 185 250Z" fill="#78909C"/>
  <!-- colarinho -->
  <path d="M112 180 L125 196 L138 180" fill="none" stroke="white" stroke-width="3"/>
</svg>
