<svg xmlns="http://www.w3.org/2000/svg" width="250" height="250" viewBox="0 0 250 250">
  <!-- fundo laranja claro -->
  <rect width="250" height="250" rx="125" fill="#FFF3E0"/>
  <!-- cabelo -->
  <ellipse cx="125" cy="80" rx="62" ry="48" fill="#5D4037"/>
  <!-- pescoço -->
  <rect x="112" y="155" width="26" height="28" rx="8" fill="#FDDBB4"/>
  <!-- cabeça -->
  <ellipse cx="125" cy="98" rx="54" ry="54" fill="#FDDBB4"/>
  <!-- cabelo frente -->
  <path d="M71 92 Q75 42 125 38 Q175 42 179 92 Q170 58 125 54 Q80 58 71 92Z" fill="#5D4037"/>
  <!-- orelhas -->
  <ellipse cx="71" cy="100" rx="7" ry="12" fill="#FDDBB4"/>
  <ellipse cx="179" cy="100" rx="7" ry="12" fill="#FDDBB4"/>
  <!-- olhos -->
  <ellipse cx="108" cy="98" rx="7" ry="5.5" fill="#37474F"/>
  <ellipse cx="142" cy="98" rx="7" ry="5.5" fill="#37474F"/>
  <circle cx="110" cy="96" r="2.5" fill="white"/>
  <circle cx="144" cy="96" r="2.5" fill="white"/>
  <!-- sobrancelhas grossas -->
  <path d="M98 85 Q108 80 118 85" fill="none" stroke="#4E342E" stroke-width="3.5" stroke-linecap="round"/>
  <path d="M132 85 Q142 80 152 85" fill="none" stroke="#4E342E" stroke-width="3.5" stroke-linecap="round"/>
  <!-- nariz -->
  <path d="M120 112 Q125 122 130 112" fill="none" stroke="#C2867A" stroke-width="2.5" stroke-linecap="round"/>
  <!-- boca -->
  <path d="M110 130 Q125 140 140 130" fill="none" stroke="#C2867A" stroke-width="3" stroke-linecap="round"/>
  <!-- corpo camisa azul -->
  <path d="M65 250 Q65 185 125 180 Q185 185 185 250Z" fill="#5C6BC0"/>
  <!-- colarinho -->
  <path d="M112 180 L125 196 L138 180" fill="none" stroke="white" stroke-width="3"/>
</svg>
